<svg xmlns="http://www.w3.org/2000/svg" xmlns:xlink="http://www.w3.org/1999/xlink" width="1280" zoomAndPan="magnify" viewBox="0 0 960 599.999999" height="800" preserveAspectRatio="xMidYMid meet" version="1.0"><defs><filter x="0%" y="0%" width="100%" height="100%" id="6cf74b24fa"><feColorMatrix values="0 0 0 0 1 0 0 0 0 1 0 0 0 0 1 0 0 0 1 0" color-interpolation-filters="sRGB"/></filter><mask id="cfe7a080f7"><g filter="url(#6cf74b24fa)"><rect x="-96" width="1152" fill="#000000" y="-60" height="719.999999" fill-opacity="0.16"/></g></mask><clipPath id="0640efed3f"><path d="M 0.667969 0.941406 L 481.332031 0.941406 L 481.332031 257 L 0.667969 257 Z M 0.667969 0.941406 " clip-rule="nonzero"/></clipPath><clipPath id="cd9a3f7125"><path d="M 241 0.941406 C 108.269531 0.941406 0.667969 108.539062 0.667969 241.273438 C 0.667969 374.003906 108.269531 481.601562 241 481.601562 C 373.730469 481.601562 481.332031 374.003906 481.332031 241.273438 C 481.332031 108.539062 373.730469 0.941406 241 0.941406 Z M 241 0.941406 " clip-rule="nonzero"/></clipPath><clipPath id="0f3ad7f787"><rect x="0" width="482" y="0" height="257"/></clipPath></defs><rect x="-96" width="1152" fill="#ffffff" y="-60" height="719.999999" fill-opacity="1"/><rect x="-96" width="1152" fill="#1d4f42" y="-60" height="719.999999" fill-opacity="1"/><g mask="url(#cfe7a080f7)"><g transform="matrix(1, 0, 0, 1, 239, 343)"><g clip-path="url(#0f3ad7f787)"><g clip-path="url(#0640efed3f)"><g clip-path="url(#cd9a3f7125)"><path fill="#000000" d="M 0.667969 0.941406 L 481.332031 0.941406 L 481.332031 481.601562 L 0.667969 481.601562 Z M 0.667969 0.941406 " fill-opacity="1" fill-rule="nonzero"/></g></g></g></g></g></svg>